<svg width="512" height="512" viewBox="0 0 512 512" xmlns="http://www.w3.org/2000/svg">
  <rect width="512" height="512" rx="120" fill="#020617"/>
  <circle cx="256" cy="256" r="200" fill="#0f172a" stroke="#1e293b" stroke-width="4"/>
  <path d="M256 64L320 208L448 256L320 304L256 448L192 304L64 256L192 208L256 64Z" fill="url(#grad)" opacity="0.95"/>
  <path d="M256 144L296 232L384 256L296 280L256 368L216 280L128 256L216 232L256 144Z" fill="#38BDF8"/>
  <circle cx="256" cy="64" r="16" fill="#E0F2FE"/>
  <circle cx="448" cy="256" r="16" fill="#E0F2FE"/>
  <circle cx="64" cy="256" r="16" fill="#E0F2FE"/>
  <circle cx="256" cy="448" r="16" fill="#E0F2FE"/>
  <circle cx="256" cy="256" r="24" fill="#FFFFFF"/>
  <defs>
    <linearGradient id="grad" x1="64" y1="64" x2="448" y2="448" gradientUnits="userSpaceOnUse">
      <stop stop-color="#06B6D4"/>
      <stop offset="0.5" stop-color="#6366F1"/>
      <stop offset="1" stop-color="#A855F7"/>
    </linearGradient>
  </defs>
</svg>